<svg xmlns="http://www.w3.org/2000/svg" width="135" height="26" viewBox="0 0 135 26"><g fill="#FFF"><path d="M8.6.5c3.8.1 6.6 1.2 8.5 3.2C19 5.7 20 8.8 20 13c0 4.2-1 7.3-2.9 9.3-1.9 2-4.7 3.1-8.5 3.2H0V.5h8.6zm-1.2 23c1.8 0 3.3-.2 4.6-.6 1.3-.4 2.3-1 3.2-1.8.8-.8 1.4-1.9 1.8-3.3.4-1.3.6-2.9.6-4.8s-.2-3.5-.6-4.8c-.4-1.3-1-2.4-1.8-3.3-.8-.8-1.9-1.5-3.2-1.8-1.3-.4-2.8-.6-4.6-.6h-5v20.9h5zM23.1.5l5.6 21.9h.1l6-21.9h2.9l6.1 21.9h.1L49.6.5H52l-6.8 25h-2.5L36.3 3.1h-.1L30 25.5h-2.6L20.5.5h2.6zM53.2 8.1c.5-1.6 1.2-2.9 2.2-4.1 1-1.2 2.2-2.2 3.7-2.9C60.6.4 62.3 0 64.2 0c1.9 0 3.6.4 5.1 1.1 1.5.7 2.7 1.7 3.6 2.9 1 1.2 1.7 2.6 2.2 4.1.5 1.6.7 3.2.7 4.9 0 1.7-.2 3.4-.7 4.9-.5 1.6-1.2 2.9-2.2 4.1-1 1.2-2.2 2.1-3.6 2.9-1.5.7-3.2 1.1-5.1 1.1-1.9 0-3.6-.4-5.1-1.1-1.5-.7-2.7-1.7-3.7-2.9s-1.7-2.6-2.2-4.1c-.5-1.6-.7-3.2-.7-4.9 0-1.7.3-3.4.7-4.9zm2.2 8.9c.4 1.3.9 2.5 1.7 3.5.8 1 1.7 1.9 2.9 2.5 1.2.6 2.6.9 4.2.9s3-.3 4.2-.9c1.2-.6 2.1-1.5 2.9-2.5.8-1 1.3-2.2 1.7-3.5.4-1.3.5-2.7.5-4 0-1.4-.2-2.7-.5-4-.4-1.3-.9-2.5-1.7-3.5-.8-1-1.7-1.9-2.9-2.5-1.1-.7-2.6-1-4.2-1s-3 .3-4.2 1c-1.2.6-2.1 1.5-2.9 2.5-.8 1-1.3 2.2-1.7 3.5-.4 1.3-.5 2.6-.5 4s.2 2.7.5 4zM81.2.5v23h13.9v2H78.8V.5h2.4zM99.8.5v23h13.9v2H97.5V.5h2.3z"/><path d="M125.3.5l9.7 25h-2.5l-3-7.8h-11.3l-3 7.8h-2.5l10-25h2.6zm3.4 15.2l-4.8-12.8-5 12.8h9.8z"/></g></svg>